<?xml version="1.0" encoding="utf-8"?>
<!-- Generator: Adobe Illustrator 16.0.0, SVG Export Plug-In . SVG Version: 6.00 Build 0)  -->
<!DOCTYPE svg PUBLIC "-//W3C//DTD SVG 1.1//EN" "http://www.w3.org/Graphics/SVG/1.1/DTD/svg11.dtd">
<svg version="1.1" id="Layer_1" xmlns="http://www.w3.org/2000/svg" xmlns:xlink="http://www.w3.org/1999/xlink" x="0px" y="0px"
	 width="64px" height="64px" viewBox="0 0 64 64" enable-background="new 0 0 64 64" xml:space="preserve">
<g>
	<g id="XMLID_1_">
		<g>
			<path fill="#FFFFFF" d="M23.6,40.31c-0.77,0-1.39,0.631-1.39,1.4c0,0.771,0.62,1.4,1.39,1.4c0.78,0,1.4-0.63,1.4-1.4
				C25,40.94,24.38,40.31,23.6,40.31z M20.33,43.21H16c-0.83,0-1.5-0.67-1.5-1.5s0.67-1.5,1.5-1.5h4.34c0.57-1.24,1.81-2.1,3.27-2.1
				c1.45,0,2.7,0.859,3.27,2.1H48c0.83,0,1.5,0.67,1.5,1.5s-0.67,1.5-1.5,1.5H26.88c-0.57,1.24-1.82,2.11-3.28,2.11
				C22.15,45.32,20.91,44.45,20.33,43.21z"/>
			<polygon fill="#FFFFFF" points="37.8,27.34 28.2,33.89 28.2,20.79 			"/>
			<path fill="#006BCC" d="M56,16.98v30.04c0,2.2-1.8,4-4,4H12c-2.2,0-4-1.8-4-4V16.98c0-2.2,1.8-4,4-4h40
				C54.2,12.98,56,14.78,56,16.98z M49.5,41.71c0-0.83-0.67-1.5-1.5-1.5H26.88c-0.57-1.24-1.82-2.1-3.27-2.1
				c-1.46,0-2.7,0.859-3.27,2.1H16c-0.83,0-1.5,0.67-1.5,1.5s0.67,1.5,1.5,1.5h4.33c0.58,1.24,1.82,2.11,3.27,2.11
				c1.46,0,2.71-0.87,3.28-2.11H48C48.83,43.21,49.5,42.54,49.5,41.71z M28.2,33.89l9.6-6.55l-9.6-6.55V33.89z"/>
			<path fill="#006BCC" d="M25,41.71c0,0.771-0.62,1.4-1.4,1.4c-0.77,0-1.39-0.63-1.39-1.4c0-0.77,0.62-1.4,1.39-1.4
				C24.38,40.31,25,40.94,25,41.71z"/>
		</g>
		<g>
		</g>
	</g>
</g>
</svg>
