<?xml version="1.0" encoding="utf-8"?>
<!-- Generator: Adobe Illustrator 16.0.0, SVG Export Plug-In . SVG Version: 6.00 Build 0)  -->
<!DOCTYPE svg PUBLIC "-//W3C//DTD SVG 1.1//EN" "http://www.w3.org/Graphics/SVG/1.1/DTD/svg11.dtd">
<svg version="1.1" id="Layer_1" xmlns="http://www.w3.org/2000/svg" xmlns:xlink="http://www.w3.org/1999/xlink" x="0px" y="0px"
	 width="64px" height="64px" viewBox="0 0 64 64" enable-background="new 0 0 64 64" xml:space="preserve">
<g>
	<polygon fill="#EEC64A" points="34,5 10,5 10,59 55,59 55,26 34,26 	"/>
	<polygon fill="#CEA636" points="34,26 55,26 34,5 	"/>
</g>
<rect x="35.669" y="26" fill="#B28A26" width="19.331" height="1.216"/>
<rect x="14.801" y="30.938" fill="#B28A26" width="36.401" height="1.63"/>
<rect x="14.801" y="34.667" fill="#B28A26" width="19.521" height="1.631"/>
<rect x="14.801" y="10.75" fill="#B28A26" width="18.032" height="1.631"/>
<rect x="14.801" y="27.573" fill="#B28A26" width="18.032" height="1.631"/>
<rect x="14.801" y="24.209" fill="#B28A26" width="18.032" height="1.631"/>
<rect x="14.801" y="17.479" fill="#B28A26" width="18.032" height="1.631"/>
<rect x="14.801" y="20.844" fill="#B28A26" width="18.032" height="1.631"/>
<rect x="14.801" y="14.115" fill="#B28A26" width="18.032" height="1.631"/>
<g>
	
		<rect x="35.189" y="23.337" transform="matrix(0.8059 -0.592 0.592 0.8059 -5.8655 32.7912)" fill="#5D5D5D" width="23.782" height="4.01"/>
	<polygon fill="#FFFFFF" points="38.416,34.249 34.393,34.729 35.99,31.003 	"/>
	
		<rect x="35.254" y="24.671" transform="matrix(0.8074 -0.59 0.59 0.8074 -5.9242 32.7145)" fill="#FFFFFF" width="23.782" height="1.52"/>
	<polygon fill="#5D5D5D" points="37.098,34.48 34.24,34.82 35.375,32.176 	"/>
	
		<rect x="54.034" y="17.466" transform="matrix(0.5722 0.8201 -0.8201 0.5722 39.3368 -37.9264)" fill="#5D5D5D" width="3.972" height="2.548"/>
</g>
<g>
	<path fill="#FFFFFF" d="M29.939,44.857c0,0.485-0.135,0.885-0.406,1.189c-0.27,0.309-0.648,0.46-1.137,0.46h-2.308V38.83
		c1.374-0.008,2.069-0.014,2.085-0.014c0.486,0,0.902,0.175,1.248,0.521c0.346,0.347,0.518,0.763,0.518,1.25V44.857z M28.762,44.54
		v-3.683c0-0.385-0.047-0.643-0.143-0.769c-0.126-0.155-0.383-0.233-0.771-0.233c-0.055,0-0.148,0-0.279,0c-0.131,0-0.231,0-0.303,0
		v5.664c0.499,0.008,0.756,0.012,0.771,0.012c0.293,0,0.495-0.1,0.605-0.295C28.723,45.087,28.762,44.854,28.762,44.54z"/>
	<path fill="#FFFFFF" d="M34.475,44.852c0,0.485-0.176,0.901-0.523,1.246c-0.35,0.346-0.766,0.52-1.242,0.52h-0.306
		c-0.487,0-0.903-0.174-1.249-0.52c-0.345-0.345-0.518-0.761-0.518-1.246v-4.375c0-0.483,0.173-0.899,0.518-1.246
		c0.346-0.345,0.762-0.518,1.249-0.518h0.306c0.479,0,0.895,0.173,1.242,0.518c0.35,0.347,0.523,0.763,0.523,1.246V44.852z
		 M33.296,44.534v-3.776c0-0.313-0.03-0.535-0.094-0.668c-0.095-0.212-0.279-0.316-0.554-0.316c-0.56,0-0.836,0.328-0.836,0.984
		v3.776c0,0.657,0.255,0.985,0.766,0.985C33.057,45.52,33.296,45.191,33.296,44.534z"/>
	<path fill="#FFFFFF" d="M38.925,44.85c0,0.485-0.173,0.901-0.519,1.248c-0.346,0.346-0.762,0.52-1.248,0.52h-0.307
		c-0.486,0-0.902-0.174-1.248-0.52c-0.348-0.345-0.521-0.761-0.521-1.246v-4.375c0-0.483,0.173-0.899,0.521-1.246
		c0.346-0.345,0.762-0.518,1.248-0.518h0.307c0.486,0,0.902,0.173,1.248,0.52c0.346,0.346,0.519,0.762,0.519,1.248v1.213h-1.178
		c0-0.069,0-0.185,0-0.34c0-0.154,0-0.275,0-0.361c0-0.813-0.259-1.219-0.776-1.219c-0.472,0-0.707,0.328-0.707,0.984v3.776
		c0,0.657,0.254,0.985,0.766,0.985c0.479,0,0.72-0.33,0.72-0.99v-1.023h1.178L38.925,44.85L38.925,44.85z"/>
	<path fill="#FFFFFF" d="M26.089,48.119l-1.354,7.654l-1.26-0.014l-0.719-4.191l-0.742,4.205l-1.26-0.014l-1.307-7.643h1.225
		L21.39,53.3l0.753-5.182h1.249L24.11,53.3l0.754-5.182L26.089,48.119L26.089,48.119z"/>
	<path fill="#FFFFFF" d="M30.518,55.762H29.34c0-1.24,0-1.863,0-1.871c0-0.416-0.133-0.699-0.396-0.85
		c-0.18-0.102-0.492-0.148-0.936-0.141h-0.199v2.859h-1.225v-7.678l2.084-0.014c0.486,0,0.902,0.175,1.248,0.521
		c0.346,0.347,0.52,0.765,0.52,1.25v1.321c0,0.242-0.072,0.49-0.213,0.742c-0.141,0.275-0.318,0.455-0.529,0.541
		c0.219,0.104,0.412,0.268,0.576,0.49c0.166,0.226,0.248,0.449,0.248,0.68V55.762z M29.258,50.848v-0.732
		c0-0.387-0.051-0.645-0.152-0.77c-0.117-0.166-0.373-0.244-0.771-0.236H27.81v2.721c0.467,0.008,0.713,0.012,0.736,0.012
		c0.287,0,0.482-0.098,0.584-0.295C29.215,51.395,29.258,51.162,29.258,50.848z"/>
	<path fill="#FFFFFF" d="M32.542,55.762h-1.225v-7.654l1.225,0.014V55.762z"/>
	<path fill="#FFFFFF" d="M36.841,49.085h-1.188v6.677h-1.226v-6.677h-1.178l-0.013-0.978h3.593L36.841,49.085z"/>
	<path fill="#FFFFFF" d="M40.868,54.667v1.095H37.3v-7.643l3.568-0.012v1.095h-2.345v2.062h2.345v1.096h-2.345v2.31L40.868,54.667
		L40.868,54.667z"/>
	<path fill="#FFFFFF" d="M45.331,55.762h-1.179c0-1.24,0-1.863,0-1.871c0-0.416-0.131-0.699-0.396-0.85
		c-0.18-0.102-0.49-0.148-0.938-0.141h-0.196v2.859h-1.226v-7.678l2.084-0.014c0.485,0,0.901,0.175,1.248,0.521
		c0.347,0.347,0.52,0.765,0.52,1.25v1.321c0,0.242-0.071,0.49-0.212,0.742c-0.144,0.275-0.318,0.455-0.53,0.541
		c0.221,0.104,0.412,0.268,0.577,0.49c0.165,0.226,0.247,0.449,0.247,0.68L45.331,55.762L45.331,55.762z M44.07,50.848v-0.732
		c0-0.387-0.051-0.645-0.151-0.77c-0.116-0.166-0.373-0.244-0.771-0.236h-0.525v2.721c0.467,0.008,0.712,0.012,0.734,0.012
		c0.289,0,0.482-0.098,0.584-0.295C44.027,51.395,44.07,51.162,44.07,50.848z"/>
</g>
</svg>
