<?xml version="1.0" encoding="utf-8"?>
<!-- Generator: Adobe Illustrator 16.0.0, SVG Export Plug-In . SVG Version: 6.00 Build 0)  -->
<!DOCTYPE svg PUBLIC "-//W3C//DTD SVG 1.1//EN" "http://www.w3.org/Graphics/SVG/1.1/DTD/svg11.dtd">
<svg version="1.1" id="Capa_1" xmlns="http://www.w3.org/2000/svg" xmlns:xlink="http://www.w3.org/1999/xlink" x="0px" y="0px"
	 width="23.303px" height="23.303px" viewBox="0 0 23.303 23.303" enable-background="new 0 0 23.303 23.303" xml:space="preserve">
<g id="XMLID_1_">
	<g>
		<path fill="#0066CC" d="M13.682,9.911h-4.05v9.7h4.05V9.911z M11.652,8.211c1.25,0,2.26-1.01,2.26-2.26
			c0-1.24-1.01-2.26-2.26-2.26s-2.26,1.02-2.26,2.26C9.392,7.201,10.402,8.211,11.652,8.211z M11.652,0.001
			c6.44,0,11.65,5.21,11.65,11.65c0,6.43-5.21,11.65-11.65,11.65c-6.43,0-11.65-5.221-11.65-11.65
			C0.002,5.221,5.221,0.001,11.652,0.001z"/>
	</g>
	<g>
	</g>
</g>
</svg>
