<?xml version="1.0" encoding="utf-8"?>
<!-- Generator: Adobe Illustrator 16.0.0, SVG Export Plug-In . SVG Version: 6.00 Build 0)  -->
<!DOCTYPE svg PUBLIC "-//W3C//DTD SVG 1.1//EN" "http://www.w3.org/Graphics/SVG/1.1/DTD/svg11.dtd">
<svg version="1.1" id="Calque_1" xmlns="http://www.w3.org/2000/svg" xmlns:xlink="http://www.w3.org/1999/xlink" x="0px" y="0px"
	 width="256px" height="256px" viewBox="0 0 256 256" enable-background="new 0 0 256 256" xml:space="preserve">
<polygon fill="#CC0000" stroke="#000000" stroke-miterlimit="10" points="126.5,222 26.5,191.571 26.5,63.13 126.5,86.792 "/>
<polygon fill="#252525" stroke="#000000" stroke-miterlimit="10" points="130.206,222 229.5,194.094 229.5,65.652 128.788,86.792
	"/>
<polygon fill="#FFFFFF" stroke="#000000" stroke-miterlimit="10" points="126.739,83.304 30.913,60.609 126.739,37.913
	225.087,63.13 "/>
<g>
</g>
<g>
	<g>
		<path fill="#FFFFFF" d="M57.313,127.3l-0.031,5.06c-1.333,1.489-3.194,1.906-5.109,1.395c-1.548-0.416-2.855-1.479-3.917-3.19
			c-1.062-1.706-1.894-3.886-2.498-6.54c-0.605-2.647-0.897-5.42-0.879-8.316c0.028-4.601,0.759-8.303,2.2-11.114
			c1.446-2.821,3.301-3.977,5.414-3.5c1.462,0.331,3.65,1.741,4.96,3.771l-0.031,4.945c-1.308-2.437-3.302-3.993-4.857-4.353
			c-1.59-0.367-2.953,0.466-4.01,2.52c-1.053,2.047-1.611,4.787-1.632,8.236c-0.021,3.479,0.46,6.463,1.471,8.968
			c1.013,2.512,2.322,3.979,3.929,4.402C54.013,130.027,55.977,129.355,57.313,127.3z"/>
		<path fill="#FFFFFF" d="M66.969,104.311c2.237,0.504,4.1,2.526,5.582,6.071c1.486,3.558,2.217,7.764,2.188,12.605
			c-0.032,4.843-0.818,8.653-2.359,11.425c-1.535,2.762-3.446,3.831-5.731,3.221c-2.166-0.582-3.955-2.627-5.366-6.127
			c-1.405-3.486-2.093-7.571-2.063-12.258c0.029-4.808,0.771-8.62,2.226-11.44C62.906,104.979,64.746,103.809,66.969,104.311z
			 M67.025,108.752c-1.646-0.381-3.005,0.465-4.074,2.536c-1.064,2.065-1.607,4.89-1.628,8.479c-0.021,3.483,0.486,6.514,1.525,9.1
			c1.042,2.592,2.364,4.098,3.963,4.518c1.612,0.424,2.973-0.412,4.072-2.516c1.105-2.108,1.668-4.947,1.69-8.51
			c0.022-3.47-0.506-6.518-1.579-9.142C69.92,110.603,68.598,109.115,67.025,108.752z"/>
		<path fill="#FFFFFF" d="M77.078,139.996l0.206-32.897l5.115,1.163c2.047,0.463,3.716,1.523,4.908,3.157
			c1.194,1.638,2.166,3.874,2.864,6.69c0.7,2.822,1.05,5.809,1.031,8.941c-0.014,2.24-0.217,4.334-0.627,6.279
			c-0.405,1.943-0.976,3.597-1.713,4.955c-0.751,1.401-1.616,2.375-2.599,2.928c-0.574,0.342-1.098,0.532-1.574,0.572
			c-0.475,0.039-1.471-0.146-2.804-0.503L77.078,139.996z M82.406,112.509l-2.507-0.571l-0.154,24.568l2.57,0.668
			c1.075,0.283,1.831,0.314,2.429,0.146c0.601-0.17,1.059-0.465,1.465-0.859c0.403-0.398,0.753-0.926,1.093-1.572
			c1.088-2.112,1.635-5.002,1.657-8.654c0.022-3.588-0.517-6.649-1.606-9.172c-0.402-0.94-0.863-1.74-1.385-2.403
			c-0.521-0.661-0.931-1.109-1.399-1.393C84.102,112.985,83.437,112.748,82.406,112.509z"/>
		<path fill="#FFFFFF" d="M94.457,111.021l7.927,1.735l-0.027,4.331l-6.606-1.528l-0.063,10.282l6.606,1.622l-0.03,4.354
			l-6.604-1.655l-0.064,10.476l7.925,2.105l-0.028,4.334l-9.245-2.479L94.457,111.021z"/>
	</g>
</g>
<g>
	<g>
		<path fill="#FFFFFF" d="M46.912,143.146l2.052,0.676l-0.036,22.436l-2.205-0.786l0.029-17.411l-4.688,7.029l-0.399-0.138
			l-4.658-10.171l-0.025,17.217l-2.136-0.763l0.038-22.068l2.02,0.667l4.975,10.791L46.912,143.146z"/>
		<path fill="#FFFFFF" d="M57.254,146.436l1.58,0.523l7.066,25.353l-2.333-0.835l-2.103-7.496l-6.689-2.336l-1.953,6.001
			l-2.275-0.81L57.254,146.436z M60.54,160.761l-2.524-9.089l-2.352,7.403L60.54,160.761z"/>
		<path fill="#FFFFFF" d="M71.653,164.711l-1.754-2.127c-1.097-1.332-1.875-2.54-2.337-3.624c-0.46-1.078-0.69-2.221-0.689-3.423
			c0.003-1.804,0.444-3.12,1.323-3.957c0.878-0.837,2.023-1.024,3.433-0.557c1.35,0.445,2.593,1.398,3.729,2.856l-0.006,3.758
			c-1.171-1.995-2.431-3.216-3.775-3.663c-0.756-0.254-1.375-0.212-1.859,0.122c-0.486,0.335-0.729,0.89-0.73,1.666
			c-0.001,0.686,0.175,1.392,0.533,2.11c0.356,0.722,0.928,1.55,1.721,2.479l1.766,2.098c1.98,2.362,2.973,4.851,2.968,7.455
			c-0.004,1.854-0.444,3.206-1.319,4.055c-0.877,0.845-2.01,1.02-3.401,0.523c-1.592-0.567-3.037-1.779-4.334-3.633l0.008-4.164
			c1.232,2.679,2.671,4.312,4.309,4.89c0.726,0.258,1.33,0.184,1.814-0.221c0.484-0.406,0.729-1.041,0.73-1.907
			C73.782,168.042,73.072,166.463,71.653,164.711z"/>
		<path fill="#FFFFFF" d="M77.184,153.124l13.89,4.594l-0.005,2.997l-5.85-1.951l-0.03,20.425l-2.392-0.854l0.032-20.372
			l-5.649-1.888L77.184,153.124z"/>
		<path fill="#FFFFFF" d="M93.363,158.51l9.723,3.216l-0.004,3.035l-7.288-2.432l0.079,7.209l7.128,2.409v3.052l-7.133-2.431
			l-0.055,7.345l7.5,2.657l-0.018,3.037l-9.962-3.55L93.363,158.51z"/>
		<path fill="#FFFFFF" d="M106.008,186.614l0.042-23.908l4.388,1.453c1.785,0.59,3.207,1.664,4.259,3.222
			c1.057,1.565,1.584,3.379,1.581,5.442c-0.004,1.409-0.262,2.538-0.786,3.387c-0.518,0.85-1.26,1.361-2.227,1.534
			c0.564,0.7,1.118,1.582,1.66,2.646c0.543,1.065,1.306,2.857,2.292,5.386c0.619,1.594,1.117,2.807,1.493,3.634l0.945,2.072
			l-3.048-1.087l-0.776-1.869c-0.025-0.067-0.078-0.183-0.153-0.35l-0.494-1.124l-0.785-2.043l-0.848-2.182
			c-0.522-1.173-0.999-2.124-1.435-2.864c-0.433-0.731-0.825-1.289-1.173-1.667c-0.35-0.377-0.935-0.71-1.758-0.994l-0.654-0.228
			l-0.016,10.435L106.008,186.614z M109.302,166.703l-0.755-0.252l-0.011,7.569l0.955,0.326c1.277,0.438,2.156,0.588,2.631,0.452
			c0.478-0.135,0.851-0.461,1.117-0.973c0.267-0.517,0.403-1.154,0.403-1.926c0.003-0.76-0.146-1.499-0.44-2.213
			c-0.294-0.714-0.712-1.288-1.246-1.719C111.42,167.537,110.536,167.115,109.302,166.703z"/>
	</g>
</g>
<g>
	<g>
		<path fill="#FFFFFF" d="M140.696,158.713l0.056-7.528l29.914-24.612l-0.057,7.536l-23.498,19.248l23.304,7.443l-0.061,7.547
			L140.696,158.713z"/>
		<path fill="#FFFFFF" d="M174.289,177.476l11.824-62.329l3.976-0.809l-11.631,61.855L174.289,177.476z"/>
		<path fill="#FFFFFF" d="M218.414,138.516l-24.739,23.138l0.056-7.255l20.108-17.941l-19.915-7.715l0.049-7.246l24.488,10.484
			L218.414,138.516z"/>
	</g>
</g>
<g>
</g>
<g>
</g>
<g>
</g>
<g>
</g>
<g>
</g>
<g>
</g>
<g>
</g>
<g>
</g>
<g>
</g>
<g>
</g>
<g>
</g>
<g>
</g>
<g>
</g>
<g>
</g>
<g>
</g>
</svg>
