<?xml version="1.0" encoding="utf-8"?>
<!DOCTYPE svg PUBLIC "-//W3C//DTD SVG 1.1//EN" "http://www.w3.org/Graphics/SVG/1.1/DTD/svg11.dtd">
<svg version="1.1" id="Capa_1" xmlns="http://www.w3.org/2000/svg" xmlns:xlink="http://www.w3.org/1999/xlink" x="0px" y="0px"
	 width="23.303px" height="19.602px" viewBox="0 0 23.303 19.602" enable-background="new 0 0 23.303 19.602" xml:space="preserve">
<path fill="#0066CC" d="M11.652,0.001c-5.41,0-9.8,4.38-9.8,9.8c0,5.41,4.39,9.79,9.8,9.79s9.8-4.38,9.8-9.79
	C21.451,4.381,17.062,0.001,11.652,0.001z M12.812,16.351h-2.08v-2.18h2.08V16.351z M14.911,9.671c0,0.66-0.319,1.28-0.97,1.84
	s-1.31,0.84-1.99,0.84h-1.08v-2.01h0.12c0.74,0,1.23-0.07,1.46-0.23c0.28-0.22,0.431-0.67,0.46-1.38v-2.01
	c0-0.54-0.069-0.94-0.2-1.18c-0.189-0.33-0.529-0.49-1.02-0.49c-0.59,0-0.97,0.25-1.14,0.77c-0.11,0.28-0.16,0.77-0.16,1.49h-2
	v-1.06c0-0.83,0.29-1.54,0.88-2.12c0.59-0.59,1.29-0.88,2.12-0.88h0.52c0.83,0,1.53,0.29,2.12,0.88c0.59,0.58,0.88,1.29,0.88,2.12
	V9.671z"/>
</svg>
