<?xml version="1.0" encoding="utf-8"?>
<!-- Generator: Adobe Illustrator 16.0.0, SVG Export Plug-In . SVG Version: 6.00 Build 0)  -->
<!DOCTYPE svg PUBLIC "-//W3C//DTD SVG 1.1//EN" "http://www.w3.org/Graphics/SVG/1.1/DTD/svg11.dtd">
<svg version="1.1" id="Layer_1" xmlns="http://www.w3.org/2000/svg" xmlns:xlink="http://www.w3.org/1999/xlink" x="0px" y="0px"
	 width="64px" height="64px" viewBox="0 0 64 64" enable-background="new 0 0 64 64" xml:space="preserve">
<polygon fill="#4EEA60" points="34,5 10,5 10,59 55,59 55,26 34,26 "/>
<g>
	<g>
		<line fill="none" stroke="#FFFFFF" stroke-miterlimit="10" x1="34" y1="10.75" x2="34" y2="34.75"/>
		<polygon fill="none" stroke="#FFFFFF" stroke-miterlimit="10" points="50.2,26.75 50.2,34.75 14.8,34.75 14.8,10.75 34,10.75 
			34,26.75 		"/>
		<line fill="none" stroke="#FFFFFF" stroke-miterlimit="10" x1="14.8" y1="14.75" x2="34" y2="14.75"/>
		<line fill="none" stroke="#FFFFFF" stroke-miterlimit="10" x1="14.8" y1="18.75" x2="34" y2="18.75"/>
		<line fill="none" stroke="#FFFFFF" stroke-miterlimit="10" x1="14.8" y1="22.75" x2="34" y2="22.75"/>
		<line fill="none" stroke="#FFFFFF" stroke-miterlimit="10" x1="14.8" y1="26.75" x2="34" y2="26.75"/>
		<line fill="none" stroke="#FFFFFF" stroke-miterlimit="10" x1="14.8" y1="30.75" x2="50.2" y2="30.75"/>
		<line fill="none" stroke="#FFFFFF" stroke-miterlimit="10" x1="19.8" y1="10.75" x2="19.8" y2="34.75"/>
		<line fill="none" stroke="#FFFFFF" stroke-miterlimit="10" x1="26.8" y1="10.75" x2="26.8" y2="34.75"/>
		<line fill="none" stroke="#FFFFFF" stroke-miterlimit="10" x1="42" y1="26.75" x2="42" y2="34.75"/>
	</g>
	<g>
		<path fill="#FFFFFF" d="M17.533,17.45c0,0.012-0.004,0.024-0.012,0.034c-0.009,0.01-0.018,0.016-0.028,0.016
			c-0.023,0-0.059,0-0.107,0.001c-0.047,0-0.083,0.001-0.106,0.001c-0.019,0-0.027-0.01-0.027-0.031V17.46
			c0.007-0.249,0.011-0.399,0.011-0.452v-0.29c0-0.018-0.003-0.027-0.01-0.027c-0.01,0-0.025,0.004-0.045,0.012
			c-0.02,0.008-0.035,0.012-0.046,0.012c-0.015,0-0.023-0.012-0.023-0.036c0-0.022,0-0.055,0-0.1s-0.001-0.078-0.001-0.101
			c0-0.013,0.006-0.023,0.019-0.029c0.073-0.04,0.13-0.093,0.171-0.16c0.009-0.014,0.016-0.021,0.021-0.021
			c0.001,0,0.004,0,0.009,0.002c0.019,0.005,0.046,0.013,0.083,0.024c0.02,0.003,0.049,0.009,0.087,0.018
			c0.007,0.002,0.011,0.01,0.011,0.021c0,0.004,0,0.011-0.001,0.021c-0.006,0.057-0.008,0.198-0.008,0.421
			c0,0.075,0,0.188,0.001,0.338C17.533,17.263,17.533,17.375,17.533,17.45z"/>
	</g>
	<g>
		<path fill="#FFFFFF" d="M17.755,21.222c0,0.015-0.001,0.038-0.004,0.067c-0.003,0.029-0.003,0.053-0.003,0.068s0,0.04-0.001,0.074
			c-0.001,0.034,0,0.059,0,0.075c0,0.016-0.008,0.024-0.025,0.024c-0.006,0-0.029-0.006-0.069-0.019
			c-0.045-0.013-0.129-0.02-0.252-0.02c-0.038,0-0.095,0.003-0.171,0.008s-0.133,0.008-0.17,0.008c-0.013,0-0.02-0.008-0.022-0.024
			c-0.001-0.022-0.005-0.055-0.011-0.099c-0.013-0.066-0.019-0.104-0.019-0.114c0-0.014,0.021-0.025,0.062-0.032
			c0.049-0.008,0.08-0.02,0.094-0.035c0.05-0.055,0.101-0.125,0.154-0.21c0.066-0.107,0.1-0.187,0.1-0.24
			c0-0.046-0.013-0.085-0.039-0.117c-0.025-0.032-0.056-0.047-0.091-0.047c-0.04,0-0.079,0.01-0.118,0.031
			c-0.026,0.013-0.054,0.032-0.083,0.057c-0.024,0.02-0.038,0.03-0.04,0.03c-0.017,0-0.025-0.026-0.025-0.078
			c0-0.041-0.001-0.07-0.004-0.088c-0.001-0.008-0.004-0.026-0.011-0.053c-0.006-0.023-0.009-0.04-0.009-0.051
			c0-0.008,0.004-0.017,0.013-0.024c0.041-0.039,0.096-0.069,0.165-0.091c0.061-0.02,0.121-0.029,0.179-0.029
			c0.094,0,0.173,0.027,0.236,0.082c0.075,0.064,0.112,0.155,0.112,0.272c0,0.157-0.09,0.34-0.271,0.55
			c0.128-0.008,0.229-0.013,0.301-0.013C17.748,21.186,17.755,21.198,17.755,21.222z"/>
	</g>
	<g>
		<path fill="#FFFFFF" d="M17.721,25.041c0,0.121-0.038,0.213-0.114,0.278c-0.064,0.056-0.145,0.084-0.241,0.084
			c-0.074,0-0.135-0.007-0.183-0.021c-0.104-0.029-0.157-0.054-0.157-0.076c0-0.004,0.001-0.01,0.003-0.018
			c0.007-0.024,0.017-0.06,0.03-0.108c0.004-0.024,0.011-0.06,0.021-0.107c0.004-0.016,0.012-0.024,0.022-0.024
			c-0.001,0,0.021,0.011,0.066,0.032s0.083,0.032,0.112,0.032c0.097,0,0.146-0.042,0.146-0.128c0-0.068-0.046-0.103-0.138-0.103
			c-0.012,0-0.029,0-0.049,0.002c-0.021,0.001-0.034,0.002-0.04,0.002c-0.03,0-0.047,0-0.05-0.001
			c-0.022-0.003-0.033-0.014-0.033-0.033c0-0.1,0.003-0.162,0.009-0.188c0.004-0.016,0.012-0.024,0.024-0.024
			c0.017,0,0.042,0.003,0.075,0.008c0.033,0.005,0.057,0.008,0.074,0.008c0.021,0,0.039-0.009,0.053-0.028s0.021-0.042,0.021-0.071
			c0-0.077-0.042-0.115-0.128-0.115c-0.035,0-0.083,0.013-0.145,0.038c-0.002,0-0.005,0.001-0.007,0.001
			c-0.006,0-0.012-0.009-0.016-0.027c-0.001-0.027-0.002-0.059-0.004-0.094c0-0.008-0.002-0.023-0.004-0.047
			c-0.002-0.019-0.003-0.034-0.003-0.046c0-0.035,0.041-0.061,0.122-0.08c0.056-0.013,0.11-0.02,0.163-0.02
			c0.084,0,0.158,0.024,0.221,0.073c0.077,0.059,0.115,0.14,0.115,0.243c0,0.119-0.041,0.209-0.123,0.271
			c0.048,0.021,0.087,0.058,0.115,0.108C17.707,24.916,17.721,24.975,17.721,25.041z"/>
	</g>
	<g>
		<path fill="#FFFFFF" d="M17.766,28.996c0,0.01-0.006,0.016-0.019,0.02c-0.009,0.002-0.021,0.002-0.037,0.001
			c-0.022-0.002-0.032-0.003-0.028-0.003c-0.019,0-0.029,0.013-0.029,0.038c0,0.016,0,0.039,0.002,0.071
			c0.002,0.032,0.002,0.055,0.002,0.071c0,0.023-0.008,0.034-0.023,0.034c-0.171,0-0.261-0.003-0.27-0.008
			c-0.009-0.005-0.013-0.013-0.013-0.021c0-0.01,0.003-0.034,0.009-0.072c0.006-0.039,0.009-0.066,0.009-0.084
			c0-0.021-0.009-0.032-0.028-0.032c-0.033,0-0.083,0.001-0.148,0.004c-0.066,0.002-0.116,0.004-0.149,0.004
			c-0.04,0-0.06-0.021-0.06-0.062c0-0.021,0-0.052,0-0.093c0-0.041-0.001-0.072-0.001-0.093c0-0.02,0.008-0.04,0.023-0.062
			c0.072-0.102,0.125-0.183,0.158-0.244c0.016-0.029,0.07-0.144,0.161-0.343c0.012-0.03,0.031-0.071,0.058-0.123
			c0.007-0.011,0.014-0.017,0.022-0.017c0.012,0,0.049,0.012,0.11,0.035s0.104,0.035,0.126,0.035c0.016,0,0.023,0.013,0.023,0.04
			c0,0.025-0.002,0.063-0.007,0.115c-0.004,0.051-0.006,0.09-0.006,0.116v0.411c0.009,0,0.025-0.002,0.049-0.006
			c0.021-0.004,0.037-0.006,0.048-0.006c0.009,0,0.014,0.007,0.014,0.022c0,0.014,0,0.034-0.002,0.062
			c-0.002,0.028-0.002,0.048-0.002,0.063c0,0.015,0.001,0.036,0.003,0.064C17.765,28.96,17.766,28.982,17.766,28.996z
			 M17.399,28.379c0-0.004-0.002-0.006-0.005-0.006c-0.004,0-0.009,0.004-0.013,0.013c-0.032,0.067-0.063,0.134-0.095,0.201
			c-0.038,0.078-0.075,0.14-0.111,0.187c0.027,0,0.097-0.004,0.208-0.014c0.001-0.026,0.004-0.09,0.01-0.192
			C17.397,28.487,17.399,28.424,17.399,28.379z"/>
	</g>
	<g>
		<path fill="#FFFFFF" d="M17.724,32.967c0,0.291-0.136,0.438-0.409,0.438c-0.04,0-0.093-0.006-0.159-0.018
			c-0.086-0.014-0.131-0.031-0.136-0.052c-0.002-0.008-0.003-0.038-0.003-0.087c0-0.027,0.002-0.064,0.007-0.109
			c0.007-0.059,0.014-0.088,0.022-0.088c0.002,0,0.007,0.002,0.013,0.006c0.059,0.039,0.127,0.06,0.203,0.06
			c0.109,0,0.164-0.048,0.164-0.142c0-0.051-0.02-0.09-0.06-0.115c-0.031-0.021-0.069-0.031-0.112-0.031
			c-0.018,0-0.045,0.003-0.082,0.009c-0.036,0.006-0.063,0.009-0.082,0.009c-0.017,0-0.026-0.01-0.026-0.031
			c0-0.063,0.002-0.157,0.006-0.285c0.004-0.129,0.006-0.225,0.006-0.286c0-0.013,0.003-0.025,0.011-0.039
			c0.008-0.015,0.015-0.021,0.024-0.024c0.011-0.002,0.08-0.004,0.207-0.004c0.144,0,0.241,0,0.29,0.002
			c0.013,0,0.02,0.008,0.02,0.022c0,0.036-0.003,0.088-0.009,0.151c-0.007,0.084-0.017,0.125-0.027,0.125l-0.008-0.002
			c-0.112-0.013-0.181-0.02-0.209-0.02c-0.055,0-0.083,0.004-0.088,0.012c-0.008,0.02-0.012,0.057-0.012,0.11
			c0,0.008,0.001,0.015,0.003,0.021c0.013,0,0.032-0.002,0.059-0.006c0.025-0.003,0.045-0.005,0.059-0.005
			c0.092,0,0.168,0.032,0.229,0.097C17.691,32.752,17.724,32.848,17.724,32.967z"/>
	</g>
	<g>
		<path fill="#FFFFFF" d="M23.77,13.476c0,0.012-0.006,0.02-0.019,0.024c-0.015,0.005-0.061,0.008-0.138,0.008
			c-0.071,0-0.116-0.002-0.137-0.008c-0.017-0.004-0.027-0.019-0.032-0.044c-0.017-0.094-0.03-0.144-0.04-0.15
			c-0.008-0.004-0.074-0.007-0.199-0.007c-0.084,0-0.129,0.003-0.134,0.009c-0.008,0.01-0.018,0.045-0.028,0.104
			c-0.009,0.054-0.021,0.083-0.034,0.088c-0.017,0.005-0.073,0.008-0.169,0.008c-0.076,0-0.114-0.009-0.114-0.028
			c0-0.017,0.056-0.225,0.168-0.624c0.121-0.432,0.187-0.669,0.197-0.712c0.006-0.025,0.013-0.037,0.021-0.037
			c0.013,0,0.034,0.001,0.062,0.005c0.028,0.003,0.049,0.005,0.063,0.005c0.013,0,0.033-0.001,0.059-0.003
			c0.026-0.002,0.045-0.003,0.058-0.003c0.009,0,0.018,0.011,0.026,0.032c0.024,0.068,0.095,0.303,0.212,0.703
			C23.711,13.248,23.77,13.458,23.77,13.476z M23.244,12.586c-0.01,0.029-0.028,0.091-0.053,0.187
			c-0.027,0.102-0.04,0.161-0.04,0.179c0,0.012,0.015,0.018,0.044,0.02c0.016,0.001,0.041,0.002,0.076,0.002
			c0.033,0,0.051-0.005,0.054-0.016c0.001-0.003,0.001-0.008,0.001-0.014c0-0.021-0.011-0.081-0.034-0.178
			C23.271,12.672,23.254,12.612,23.244,12.586z"/>
	</g>
	<g>
		<path fill="#FFFFFF" d="M30.959,13.078c0,0.12-0.028,0.219-0.085,0.298c-0.065,0.09-0.179,0.136-0.342,0.136
			c-0.012,0-0.03,0-0.053-0.001c-0.024,0-0.042,0-0.053,0c-0.183,0-0.291-0.005-0.326-0.015c-0.015-0.004-0.021-0.014-0.021-0.03
			c0-0.07,0.003-0.175,0.009-0.316c0.006-0.141,0.009-0.247,0.009-0.317c0-0.076-0.003-0.217-0.009-0.426
			c-0.002-0.053-0.004-0.133-0.008-0.24l-0.001-0.014c0-0.012,0.007-0.02,0.023-0.022s0.073-0.004,0.172-0.004
			c0.158,0,0.25,0,0.277,0.002c0.122,0.006,0.211,0.032,0.27,0.078c0.077,0.062,0.115,0.167,0.115,0.313
			c0,0.039-0.009,0.079-0.026,0.122c-0.013,0.031-0.03,0.061-0.051,0.092c-0.018,0.027-0.027,0.039-0.027,0.037
			c0,0.004,0.006,0.012,0.02,0.021c0.034,0.026,0.062,0.067,0.082,0.124C30.951,12.967,30.959,13.021,30.959,13.078z M30.641,12.528
			c0-0.056-0.021-0.093-0.064-0.111c-0.023-0.01-0.063-0.015-0.117-0.015c-0.053,0-0.08,0.005-0.08,0.016
			c0,0.012-0.001,0.031-0.002,0.056c-0.002,0.025-0.003,0.044-0.003,0.056c0,0.064,0.004,0.102,0.013,0.109
			c0.005,0.006,0.037,0.009,0.094,0.009C30.587,12.648,30.641,12.608,30.641,12.528z M30.663,13.074
			c0-0.059-0.019-0.098-0.056-0.119c-0.023-0.013-0.062-0.02-0.116-0.02c-0.063,0-0.098,0.003-0.104,0.009
			c-0.006,0.006-0.008,0.046-0.008,0.12c0,0.077,0.003,0.119,0.01,0.127c0.006,0.008,0.042,0.012,0.106,0.012
			c0.054,0,0.091-0.005,0.113-0.017C30.645,13.168,30.663,13.131,30.663,13.074z"/>
	</g>
</g>
<polygon fill="#37CC49" points="55,26 34,26 34,5 "/>
<rect x="35.669" y="26" fill="#27AF34" width="19.331" height="1.216"/>
<g>
	<path fill="#FFFFFF" d="M24.356,40.914h-1.432v-0.527c0-0.246-0.019-0.402-0.055-0.471c-0.036-0.068-0.098-0.102-0.183-0.102
		c-0.093,0-0.163,0.045-0.21,0.137c-0.048,0.091-0.072,0.229-0.072,0.413c0,0.237,0.027,0.417,0.081,0.536
		c0.051,0.121,0.196,0.266,0.436,0.436c0.687,0.489,1.119,0.891,1.297,1.203c0.178,0.314,0.267,0.818,0.267,1.518
		c0,0.506-0.049,0.881-0.148,1.119c-0.099,0.241-0.29,0.442-0.573,0.604c-0.283,0.164-0.613,0.244-0.989,0.244
		c-0.413,0-0.765-0.094-1.057-0.28c-0.292-0.188-0.483-0.427-0.573-0.716c-0.09-0.291-0.135-0.702-0.135-1.235v-0.466h1.432v0.865
		c0,0.268,0.02,0.438,0.06,0.515c0.041,0.076,0.112,0.114,0.214,0.114s0.179-0.049,0.229-0.146c0.05-0.098,0.075-0.239,0.075-0.432
		c0-0.418-0.047-0.692-0.143-0.821c-0.098-0.129-0.338-0.344-0.722-0.646c-0.383-0.305-0.637-0.525-0.762-0.664
		c-0.124-0.137-0.228-0.327-0.309-0.57c-0.082-0.243-0.123-0.555-0.123-0.932c0-0.545,0.058-0.943,0.174-1.195
		c0.116-0.252,0.303-0.449,0.562-0.591c0.259-0.144,0.571-0.214,0.938-0.214c0.4,0,0.742,0.078,1.023,0.232
		c0.282,0.155,0.469,0.352,0.561,0.588c0.091,0.234,0.137,0.637,0.137,1.201V40.914z"/>
	<path fill="#FFFFFF" d="M25.043,38.76h1.553c0.42,0,0.743,0.04,0.969,0.119s0.396,0.193,0.509,0.344
		c0.114,0.148,0.19,0.329,0.231,0.543c0.04,0.211,0.06,0.541,0.06,0.985v0.62c0,0.454-0.039,0.785-0.117,0.992
		c-0.078,0.209-0.221,0.367-0.43,0.479c-0.208,0.111-0.481,0.167-0.818,0.167h-0.414v2.865h-1.542L25.043,38.76L25.043,38.76z
		 M26.585,39.979v1.811c0.044,0.003,0.082,0.005,0.113,0.005c0.142,0,0.24-0.042,0.295-0.126c0.055-0.083,0.082-0.257,0.082-0.521
		v-0.584c0-0.242-0.032-0.4-0.095-0.475C26.917,40.016,26.785,39.979,26.585,39.979z"/>
	<path fill="#FFFFFF" d="M28.883,38.76h1.091c0.728,0,1.22,0.034,1.478,0.102c0.258,0.068,0.468,0.24,0.63,0.518
		c0.163,0.275,0.244,0.719,0.244,1.325c0,0.553-0.058,0.926-0.172,1.114c-0.115,0.191-0.341,0.307-0.678,0.345
		c0.305,0.091,0.51,0.212,0.615,0.364s0.17,0.291,0.196,0.42c0.026,0.127,0.039,0.479,0.039,1.052v1.877h-1.432v-2.364
		c0-0.381-0.025-0.615-0.075-0.707c-0.05-0.091-0.182-0.137-0.394-0.137v3.208h-1.542V38.76z M30.425,39.979v1.582
		c0.173,0,0.294-0.028,0.364-0.086c0.069-0.058,0.104-0.242,0.104-0.557v-0.391c0-0.227-0.034-0.375-0.101-0.444
		C30.726,40.014,30.603,39.979,30.425,39.979z"/>
	<path fill="#FFFFFF" d="M32.997,38.76h2.571v1.424h-1.029v1.351h0.963v1.354h-0.963v1.563h1.131v1.424h-2.673V38.76z"/>
	<path fill="#FFFFFF" d="M36.188,38.76h2.571v1.424H37.73v1.351h0.963v1.354H37.73v1.563h1.131v1.424h-2.674V38.76z"/>
	<path fill="#FFFFFF" d="M39.38,38.76h1.153c0.744,0,1.248,0.042,1.511,0.123c0.263,0.083,0.462,0.219,0.599,0.404
		c0.137,0.188,0.224,0.396,0.258,0.627c0.033,0.229,0.051,0.682,0.051,1.355v2.491c0,0.64-0.024,1.065-0.075,1.28
		c-0.05,0.216-0.138,0.384-0.263,0.506c-0.123,0.121-0.277,0.206-0.461,0.255c-0.184,0.048-0.459,0.072-0.827,0.072H39.38V38.76z
		 M40.922,39.979v4.681c0.223,0,0.357-0.054,0.41-0.161c0.051-0.105,0.076-0.396,0.076-0.872v-2.765
		c0-0.321-0.008-0.528-0.025-0.619c-0.017-0.092-0.056-0.157-0.117-0.2C41.205,39.999,41.09,39.979,40.922,39.979z"/>
	<path fill="#FFFFFF" d="M22.955,50.914h-1.432v-0.527c0-0.246-0.019-0.402-0.055-0.471c-0.036-0.068-0.098-0.102-0.183-0.102
		c-0.093,0-0.163,0.045-0.21,0.137c-0.048,0.091-0.072,0.229-0.072,0.413c0,0.237,0.027,0.417,0.081,0.536
		c0.051,0.121,0.196,0.266,0.436,0.436c0.687,0.489,1.119,0.891,1.297,1.203c0.178,0.314,0.267,0.818,0.267,1.518
		c0,0.506-0.049,0.881-0.148,1.119c-0.099,0.241-0.29,0.442-0.573,0.604c-0.283,0.164-0.613,0.244-0.989,0.244
		c-0.413,0-0.765-0.094-1.057-0.28c-0.292-0.188-0.483-0.427-0.573-0.716c-0.09-0.291-0.135-0.702-0.135-1.235v-0.466h1.432v0.865
		c0,0.268,0.02,0.438,0.06,0.515c0.041,0.076,0.112,0.114,0.214,0.114s0.179-0.049,0.229-0.146c0.05-0.098,0.075-0.239,0.075-0.432
		c0-0.418-0.047-0.692-0.143-0.821c-0.098-0.129-0.338-0.344-0.722-0.646c-0.383-0.305-0.637-0.525-0.762-0.664
		c-0.124-0.137-0.228-0.327-0.309-0.57c-0.082-0.243-0.123-0.555-0.123-0.932c0-0.545,0.058-0.943,0.174-1.195
		c0.116-0.252,0.303-0.449,0.562-0.591c0.259-0.144,0.571-0.214,0.938-0.214c0.4,0,0.742,0.078,1.023,0.232
		c0.282,0.155,0.469,0.352,0.561,0.588c0.091,0.234,0.137,0.637,0.137,1.201V50.914z"/>
	<path fill="#FFFFFF" d="M27.186,48.76v7.115h-1.542v-2.988h-0.461v2.988h-1.542V48.76h1.542v2.545h0.461V48.76H27.186z"/>
	<path fill="#FFFFFF" d="M27.88,48.76h2.571v1.424h-1.029v1.351h0.963v1.354h-0.963v1.563h1.131v1.424H27.88V48.76z"/>
	<path fill="#FFFFFF" d="M31.071,48.76h2.572v1.424h-1.029v1.351h0.963v1.354h-0.963v1.563h1.131v1.424h-2.673V48.76z"/>
	<path fill="#FFFFFF" d="M37.27,48.76v1.424h-0.914v5.691h-1.543v-5.691H33.9V48.76H37.27z"/>
	<path fill="#FFFFFF" d="M37.695,48.76h2.572v1.424h-1.029v1.351h0.963v1.354h-0.963v1.563h1.131v1.424h-2.674V48.76z"/>
	<path fill="#FFFFFF" d="M40.889,48.76h1.09c0.729,0,1.222,0.034,1.479,0.102c0.257,0.068,0.467,0.24,0.63,0.518
		c0.162,0.275,0.243,0.719,0.243,1.325c0,0.553-0.058,0.926-0.172,1.114c-0.115,0.191-0.341,0.307-0.679,0.345
		c0.306,0.091,0.511,0.212,0.615,0.364s0.17,0.291,0.196,0.42c0.024,0.127,0.038,0.479,0.038,1.052v1.877h-1.432v-2.364
		c0-0.381-0.025-0.615-0.075-0.707c-0.05-0.091-0.183-0.137-0.394-0.137v3.208h-1.543V48.76H40.889z M42.43,49.979v1.582
		c0.174,0,0.295-0.028,0.364-0.086s0.104-0.242,0.104-0.557v-0.391c0-0.227-0.035-0.375-0.102-0.444S42.607,49.979,42.43,49.979z"/>
</g>
</svg>
