<?xml version="1.0" encoding="utf-8"?>
<!-- Generator: Adobe Illustrator 16.0.0, SVG Export Plug-In . SVG Version: 6.00 Build 0)  -->
<!DOCTYPE svg PUBLIC "-//W3C//DTD SVG 1.1//EN" "http://www.w3.org/Graphics/SVG/1.1/DTD/svg11.dtd">
<svg version="1.1" id="Layer_1" xmlns="http://www.w3.org/2000/svg" xmlns:xlink="http://www.w3.org/1999/xlink" x="0px" y="0px"
	 width="64px" height="64px" viewBox="0 0 64 64" enable-background="new 0 0 64 64" xml:space="preserve">
<g>
	<g>
		<polygon fill="#EEC64A" points="31.88,0.125 3.491,0.125 3.491,64 56.72,64 56.72,24.965 31.88,24.965 		"/>
		<polygon fill="#CEA636" points="31.88,24.965 56.72,24.965 31.88,0.125 		"/>
	</g>
	<rect x="31.88" y="24.965" fill="#B28A26" width="24.84" height="2.365"/>
</g>
<rect x="6.704" y="30.807" fill="#B28A26" width="46.943" height="1.928"/>
<rect x="6.704" y="38.766" fill="#B28A26" width="25.176" height="1.93"/>
<rect x="6.704" y="34.786" fill="#B28A26" width="46.943" height="1.93"/>
<rect x="6.704" y="34.786" fill="#B28A26" width="46.943" height="1.93"/>
<rect x="33.282" y="25.363" transform="matrix(-0.8059 0.592 -0.592 -0.8059 101.9264 22.0563)" fill="#5D5D5D" width="28.132" height="4.742"/>
<polygon fill="#FFFFFF" points="37.104,38.271 32.344,38.839 34.234,34.432 "/>
<rect x="33.362" y="26.94" transform="matrix(-0.8074 0.59 -0.59 -0.8074 102.146 22.3337)" fill="#FFFFFF" width="28.131" height="1.799"/>
<polygon fill="#5D5D5D" points="35.544,38.546 32.164,38.947 33.507,35.819 "/>
<rect x="6.704" y="6.926" fill="#B28A26" width="23.255" height="1.93"/>
<rect x="6.704" y="26.827" fill="#B28A26" width="23.255" height="1.929"/>
<rect x="6.704" y="22.847" fill="#B28A26" width="23.255" height="1.929"/>
<rect x="6.704" y="14.886" fill="#B28A26" width="23.255" height="1.93"/>
<rect x="6.704" y="18.866" fill="#B28A26" width="23.255" height="1.93"/>
<rect x="6.704" y="10.907" fill="#B28A26" width="23.255" height="1.929"/>
<rect x="55.581" y="18.419" transform="matrix(-0.572 -0.8203 0.8203 -0.572 74.7206 78.8412)" fill="#5D5D5D" width="4.697" height="3.014"/>
<g>
	<path fill="#FFFFFF" d="M23.279,55.552c0,0.575-0.16,1.047-0.48,1.408c-0.32,0.363-0.767,0.543-1.345,0.543h-2.73v-9.082
		c1.625-0.008,2.448-0.016,2.466-0.016c0.575,0,1.067,0.207,1.476,0.615c0.41,0.41,0.613,0.903,0.613,1.479V55.552z M21.887,55.176
		V50.82c0-0.456-0.056-0.759-0.169-0.908c-0.149-0.185-0.453-0.278-0.912-0.278c-0.065,0-0.175,0-0.33,0c-0.155,0-0.273,0-0.358,0
		v6.701c0.59,0.009,0.894,0.014,0.912,0.014c0.347,0,0.586-0.118,0.716-0.349C21.841,55.823,21.887,55.546,21.887,55.176z"/>
	<path fill="#FFFFFF" d="M28.645,55.544c0,0.574-0.208,1.067-0.621,1.474c-0.412,0.409-0.904,0.613-1.469,0.613h-0.362
		c-0.576,0-1.067-0.204-1.478-0.613c-0.408-0.406-0.612-0.899-0.612-1.474v-5.175c0-0.573,0.205-1.065,0.612-1.474
		c0.41-0.407,0.901-0.612,1.478-0.612h0.362c0.567,0,1.057,0.205,1.469,0.612c0.415,0.408,0.621,0.9,0.621,1.474V55.544z
		 M27.25,55.169v-4.467c0-0.37-0.036-0.634-0.111-0.79c-0.112-0.251-0.33-0.374-0.655-0.374c-0.661,0-0.989,0.388-0.989,1.164v4.467
		c0,0.777,0.301,1.166,0.906,1.166C26.967,56.335,27.25,55.946,27.25,55.169z"/>
	<path fill="#FFFFFF" d="M33.908,55.542c0,0.574-0.205,1.065-0.613,1.476c-0.409,0.409-0.901,0.613-1.477,0.613h-0.362
		c-0.575,0-1.068-0.204-1.477-0.613c-0.41-0.406-0.615-0.899-0.615-1.474v-5.175c0-0.573,0.205-1.065,0.615-1.474
		c0.409-0.407,0.901-0.612,1.477-0.612h0.362c0.575,0,1.067,0.205,1.477,0.614c0.408,0.408,0.613,0.9,0.613,1.477v1.435h-1.394
		c0-0.083,0-0.219,0-0.401c0-0.185,0-0.328,0-0.43c0-0.96-0.306-1.439-0.917-1.439c-0.559,0-0.838,0.388-0.838,1.164v4.467
		c0,0.777,0.302,1.166,0.906,1.166c0.565,0,0.85-0.392,0.85-1.171v-1.211h1.394L33.908,55.542L33.908,55.542z"/>
	<path fill="#FFFFFF" d="M41.629,48.283l-1.521,9.216l-1.416-0.016l-0.806-5.048l-0.833,5.063l-1.413-0.016l-1.468-9.2h1.374
		l0.808,6.237l0.845-6.237h1.402l0.806,6.237l0.845-6.237H41.629L41.629,48.283z"/>
</g>
<rect x="6.704" y="2.946" fill="#B28A26" width="23.255" height="1.93"/>
</svg>
