<?xml version="1.0" encoding="iso-8859-1"?>
<!-- Generator: Adobe Illustrator 16.0.0, SVG Export Plug-In . SVG Version: 6.00 Build 0)  -->
<!DOCTYPE svg PUBLIC "-//W3C//DTD SVG 1.1//EN" "http://www.w3.org/Graphics/SVG/1.1/DTD/svg11.dtd">
<svg version="1.1" id="Layer_1" xmlns="http://www.w3.org/2000/svg" xmlns:xlink="http://www.w3.org/1999/xlink" x="0px" y="0px"
	 width="48px" height="48px" viewBox="0 0 48 48" style="enable-background:new 0 0 48 48;" xml:space="preserve">
<g>
	<defs>
		<rect id="SVGID_1_" width="48" height="48"/>
	</defs>
	<clipPath id="SVGID_2_">
		<use xlink:href="#SVGID_1_"  style="overflow:visible;"/>
	</clipPath>
	<g style="clip-path:url(#SVGID_2_);">
		<defs>
			<path id="SVGID_3_" d="M9,0C6.8,0,5,1.8,5,4v40c0,2.2,1.8,4,4,4h30c2.2,0,4-1.8,4-4V11c-2.922-2-8.687-7.938-10.889-11H9z"/>
		</defs>
		<clipPath id="SVGID_4_">
			<use xlink:href="#SVGID_3_"  style="overflow:visible;"/>
		</clipPath>
		
			<linearGradient id="SVGID_5_" gradientUnits="userSpaceOnUse" x1="0" y1="48" x2="1" y2="48" gradientTransform="matrix(0 46.759 46.759 0 -2220.4314 0.5)">
			<stop  offset="0" style="stop-color:#7E1416"/>
			<stop  offset="7.196800e-013" style="stop-color:#7E1416"/>
			<stop  offset="1" style="stop-color:#F15623"/>
		</linearGradient>
		<rect x="5" style="clip-path:url(#SVGID_4_);fill:url(#SVGID_5_);" width="38" height="48"/>
	</g>
	<g style="clip-path:url(#SVGID_2_);">
		<defs>
			<rect id="SVGID_6_" width="48" height="48"/>
		</defs>
		<clipPath id="SVGID_7_">
			<use xlink:href="#SVGID_6_"  style="overflow:visible;"/>
		</clipPath>
		<g style="opacity:0.7;clip-path:url(#SVGID_7_);">
			<g>
				<defs>
					<rect id="SVGID_8_" x="33.281" y="2.39" width="9.719" height="17.25"/>
				</defs>
				<clipPath id="SVGID_9_">
					<use xlink:href="#SVGID_8_"  style="overflow:visible;"/>
				</clipPath>
				<path style="clip-path:url(#SVGID_9_);fill:#FFFFFF;" d="M43,11c-2.274-1.557-6.265-5.495-8.963-8.61l-0.756,7.532L43,19.641V11
					z"/>
			</g>
		</g>
	</g>
	<g style="clip-path:url(#SVGID_2_);">
		<defs>
			<path id="SVGID_10_" d="M32.111,0L32,7c0,2.2,1.8,4,4,4h7L32.111,0z"/>
		</defs>
		<clipPath id="SVGID_11_">
			<use xlink:href="#SVGID_10_"  style="overflow:visible;"/>
		</clipPath>
		
			<linearGradient id="SVGID_12_" gradientUnits="userSpaceOnUse" x1="0" y1="48" x2="1" y2="48" gradientTransform="matrix(0 10.7156 10.7156 0 -476.8489 0.1172)">
			<stop  offset="0" style="stop-color:#7E1416"/>
			<stop  offset="7.196800e-013" style="stop-color:#7E1416"/>
			<stop  offset="1" style="stop-color:#F15623"/>
		</linearGradient>
		<rect x="32" style="clip-path:url(#SVGID_11_);fill:url(#SVGID_12_);" width="11" height="11"/>
	</g>
	<g style="clip-path:url(#SVGID_2_);">
		<defs>
			<rect id="SVGID_13_" width="48" height="48"/>
		</defs>
		<clipPath id="SVGID_14_">
			<use xlink:href="#SVGID_13_"  style="overflow:visible;"/>
		</clipPath>
		<g style="opacity:0.7;clip-path:url(#SVGID_14_);">
			<g>
				<defs>
					<rect id="SVGID_15_" x="10.55" y="20" width="32.45" height="28"/>
				</defs>
				<clipPath id="SVGID_16_">
					<use xlink:href="#SVGID_15_"  style="overflow:visible;"/>
				</clipPath>
				<g style="clip-path:url(#SVGID_16_);">
					<defs>
						<path id="SVGID_17_" d="M43,44V29.312L33.688,20l-1.036,2.652L30,20l-1.478,3.784L24.739,20l0.689,4.869l-4.806-4.806
							l-1.531,3.919l-3.919-3.919l-1.548,7.562l-3.075,1L29.925,48H39C41.2,48,43,46.2,43,44"/>
					</defs>
					<clipPath id="SVGID_18_">
						<use xlink:href="#SVGID_17_"  style="overflow:visible;"/>
					</clipPath>
					<defs>
						<filter id="Adobe_OpacityMaskFilter" filterUnits="userSpaceOnUse" x="10.55" y="20" width="32.45" height="28">
							<feColorMatrix  type="matrix" values="1 0 0 0 0  0 1 0 0 0  0 0 1 0 0  0 0 0 1 0"/>
						</filter>
					</defs>
					<mask maskUnits="userSpaceOnUse" x="10.55" y="20" width="32.45" height="28" id="SVGID_19_">
						<g style="filter:url(#Adobe_OpacityMaskFilter);">
							
								<linearGradient id="SVGID_20_" gradientUnits="userSpaceOnUse" x1="0" y1="48" x2="1" y2="48" gradientTransform="matrix(0 27.2761 27.2761 0 -1282.4702 20.2969)">
								<stop  offset="0" style="stop-color:#FFFFFF"/>
								<stop  offset="7.196800e-013" style="stop-color:#FFFFFF"/>
								<stop  offset="1" style="stop-color:#000000"/>
							</linearGradient>
							<rect x="10.55" y="20" style="clip-path:url(#SVGID_18_);fill:url(#SVGID_20_);" width="32.45" height="28"/>
						</g>
					</mask>
					
						<linearGradient id="SVGID_21_" gradientUnits="userSpaceOnUse" x1="0" y1="48" x2="1" y2="48" gradientTransform="matrix(0 27.2761 27.2761 0 -1282.4703 20.2969)">
						<stop  offset="0" style="stop-color:#7E1416"/>
						<stop  offset="7.196800e-013" style="stop-color:#7E1416"/>
						<stop  offset="1" style="stop-color:#F47B20"/>
					</linearGradient>
					
						<rect x="10.55" y="20" style="clip-path:url(#SVGID_18_);mask:url(#SVGID_19_);fill:url(#SVGID_21_);" width="32.45" height="28"/>
				</g>
			</g>
		</g>
	</g>
	<g style="clip-path:url(#SVGID_2_);">
		<defs>
			<path id="SVGID_22_" d="M13.398,20v5.917c0,1.028-0.506,1.529-1.289,1.529c-0.53,0-0.784-0.214-1.049-0.501L10,28.085
				C10.61,28.749,11.221,29,12.109,29C13.629,29,15,27.96,15,25.991V20H13.398z M20.038,22.654l1.108,3.274h-2.254L20.038,22.654z
				 M19.3,20L16,29h1.847l0.548-1.593h3.223L22.153,29H24l-3.312-9H19.3z M28.235,20l-1.741,5.865L24.753,20h-1.754l2.862,9h1.266
				L30,20H28.235z M33.038,22.654l1.109,3.274h-2.257L33.038,22.654z M32.299,20L29,29h1.847l0.548-1.593h3.224L35.153,29H37
				l-3.312-9H32.299z"/>
		</defs>
		<clipPath id="SVGID_23_">
			<use xlink:href="#SVGID_22_"  style="overflow:visible;"/>
		</clipPath>
		
			<linearGradient id="SVGID_24_" gradientUnits="userSpaceOnUse" x1="0" y1="48" x2="1" y2="48" gradientTransform="matrix(0 8.5234 8.5234 0 -385.6223 20.25)">
			<stop  offset="0" style="stop-color:#FFFFFF"/>
			<stop  offset="0.0049" style="stop-color:#FFFFFF"/>
			<stop  offset="1" style="stop-color:#F9AF6F"/>
		</linearGradient>
		<rect x="10" y="20" style="clip-path:url(#SVGID_23_);fill:url(#SVGID_24_);" width="27" height="9"/>
	</g>
</g>
</svg>
