<?xml version="1.0" encoding="iso-8859-1"?>
<!-- Generator: Adobe Illustrator 16.0.0, SVG Export Plug-In . SVG Version: 6.00 Build 0)  -->
<!DOCTYPE svg PUBLIC "-//W3C//DTD SVG 1.1//EN" "http://www.w3.org/Graphics/SVG/1.1/DTD/svg11.dtd">
<svg version="1.1" id="Layer_1" xmlns="http://www.w3.org/2000/svg" xmlns:xlink="http://www.w3.org/1999/xlink" x="0px" y="0px"
	 width="48px" height="48px" viewBox="0 0 48 48" style="enable-background:new 0 0 48 48;" xml:space="preserve">
<g>
	<defs>
		<rect id="SVGID_1_" width="48" height="48"/>
	</defs>
	<clipPath id="SVGID_2_">
		<use xlink:href="#SVGID_1_"  style="overflow:visible;"/>
	</clipPath>
	<g style="clip-path:url(#SVGID_2_);">
		<defs>
			<path id="SVGID_3_" d="M9,0C6.8,0,5,1.8,5,4v40c0,2.2,1.8,4,4,4h30c2.2,0,4-1.8,4-4V11c-2.922-2-8.687-7.938-10.889-11H9z"/>
		</defs>
		<clipPath id="SVGID_4_">
			<use xlink:href="#SVGID_3_"  style="overflow:visible;"/>
		</clipPath>
		
			<linearGradient id="SVGID_5_" gradientUnits="userSpaceOnUse" x1="0" y1="48" x2="1" y2="48" gradientTransform="matrix(0 46.759 46.759 0 -2220.4314 0.5)">
			<stop  offset="0" style="stop-color:#004546"/>
			<stop  offset="1" style="stop-color:#007380"/>
		</linearGradient>
		<rect x="5" style="clip-path:url(#SVGID_4_);fill:url(#SVGID_5_);" width="38" height="48"/>
	</g>
	<g style="clip-path:url(#SVGID_2_);">
		<defs>
			<rect id="SVGID_6_" width="48" height="48"/>
		</defs>
		<clipPath id="SVGID_7_">
			<use xlink:href="#SVGID_6_"  style="overflow:visible;"/>
		</clipPath>
		<g style="opacity:0.6;clip-path:url(#SVGID_7_);">
			<g>
				<defs>
					<rect id="SVGID_8_" x="33.281" y="2.39" width="9.719" height="17.25"/>
				</defs>
				<clipPath id="SVGID_9_">
					<use xlink:href="#SVGID_8_"  style="overflow:visible;"/>
				</clipPath>
				<g style="clip-path:url(#SVGID_9_);">
					<defs>
						<path id="SVGID_10_" d="M43,11c-2.274-1.557-6.265-5.495-8.963-8.61l-0.756,7.532L43,19.641V11z"/>
					</defs>
					<clipPath id="SVGID_11_">
						<use xlink:href="#SVGID_10_"  style="overflow:visible;"/>
					</clipPath>
					<defs>
						<filter id="Adobe_OpacityMaskFilter" filterUnits="userSpaceOnUse" x="33.281" y="2.39" width="9.719" height="17.251">
							<feColorMatrix  type="matrix" values="1 0 0 0 0  0 1 0 0 0  0 0 1 0 0  0 0 0 1 0"/>
						</filter>
					</defs>
					<mask maskUnits="userSpaceOnUse" x="33.281" y="2.39" width="9.719" height="17.251" id="SVGID_12_">
						<g style="filter:url(#Adobe_OpacityMaskFilter);">
							
								<linearGradient id="SVGID_13_" gradientUnits="userSpaceOnUse" x1="0" y1="48" x2="1" y2="48" gradientTransform="matrix(0 16.8048 16.8048 0 -768.489 2.5625)">
								<stop  offset="0" style="stop-color:#FFFFFF"/>
								<stop  offset="1" style="stop-color:#000000"/>
							</linearGradient>
							<rect x="33.281" y="2.39" style="clip-path:url(#SVGID_11_);fill:url(#SVGID_13_);" width="9.719" height="17.251"/>
						</g>
					</mask>
					
						<linearGradient id="SVGID_14_" gradientUnits="userSpaceOnUse" x1="0" y1="48" x2="1" y2="48" gradientTransform="matrix(0 16.8048 16.8048 0 -768.489 2.5625)">
						<stop  offset="0" style="stop-color:#004546"/>
						<stop  offset="1" style="stop-color:#005F70"/>
					</linearGradient>
					
						<rect x="33.281" y="2.39" style="clip-path:url(#SVGID_11_);mask:url(#SVGID_12_);fill:url(#SVGID_14_);" width="9.719" height="17.251"/>
				</g>
			</g>
		</g>
	</g>
	<g style="clip-path:url(#SVGID_2_);">
		<defs>
			<path id="SVGID_15_" d="M32.111,0L32,7c0,2.2,1.8,4,4,4h7L32.111,0z"/>
		</defs>
		<clipPath id="SVGID_16_">
			<use xlink:href="#SVGID_15_"  style="overflow:visible;"/>
		</clipPath>
		
			<linearGradient id="SVGID_17_" gradientUnits="userSpaceOnUse" x1="0" y1="48" x2="1" y2="48" gradientTransform="matrix(0 10.7156 10.7156 0 -476.8489 0.1172)">
			<stop  offset="0" style="stop-color:#004546"/>
			<stop  offset="1" style="stop-color:#007380"/>
		</linearGradient>
		<rect x="32" style="clip-path:url(#SVGID_16_);fill:url(#SVGID_17_);" width="11" height="11"/>
	</g>
	<g style="clip-path:url(#SVGID_2_);">
		<defs>
			<rect id="SVGID_18_" width="48" height="48"/>
		</defs>
		<clipPath id="SVGID_19_">
			<use xlink:href="#SVGID_18_"  style="overflow:visible;"/>
		</clipPath>
		<g style="opacity:0.6;clip-path:url(#SVGID_19_);">
			<g>
				<defs>
					<rect id="SVGID_20_" x="16" y="19.838" width="27" height="28.162"/>
				</defs>
				<clipPath id="SVGID_21_">
					<use xlink:href="#SVGID_20_"  style="overflow:visible;"/>
				</clipPath>
				<g style="clip-path:url(#SVGID_21_);">
					<defs>
						<path id="SVGID_22_" d="M31.338,19.838l-5.552,0.053L25.434,23.4l-3.497-3.497l-4.924-0.012L16,29.985L34.015,48H39
							c2.2,0,4-1.8,4-4V31.5L31.338,19.838z"/>
					</defs>
					<clipPath id="SVGID_23_">
						<use xlink:href="#SVGID_22_"  style="overflow:visible;"/>
					</clipPath>
					<defs>
						<filter id="Adobe_OpacityMaskFilter_1_" filterUnits="userSpaceOnUse" x="16" y="19.838" width="27" height="28.162">
							<feColorMatrix  type="matrix" values="1 0 0 0 0  0 1 0 0 0  0 0 1 0 0  0 0 0 1 0"/>
						</filter>
					</defs>
					<mask maskUnits="userSpaceOnUse" x="16" y="19.838" width="27" height="28.162" id="SVGID_24_">
						<g style="filter:url(#Adobe_OpacityMaskFilter_1_);">
							
								<linearGradient id="SVGID_25_" gradientUnits="userSpaceOnUse" x1="0" y1="48" x2="1" y2="48" gradientTransform="matrix(0 27.4339 27.4339 0 -1287.3259 20.125)">
								<stop  offset="0" style="stop-color:#FFFFFF"/>
								<stop  offset="1" style="stop-color:#000000"/>
							</linearGradient>
							<rect x="16" y="19.838" style="clip-path:url(#SVGID_23_);fill:url(#SVGID_25_);" width="27" height="28.162"/>
						</g>
					</mask>
					
						<linearGradient id="SVGID_26_" gradientUnits="userSpaceOnUse" x1="0" y1="48" x2="1" y2="48" gradientTransform="matrix(0 27.4339 27.4339 0 -1287.3259 20.125)">
						<stop  offset="0" style="stop-color:#004546"/>
						<stop  offset="1" style="stop-color:#005F70"/>
					</linearGradient>
					
						<rect x="16" y="19.838" style="clip-path:url(#SVGID_23_);mask:url(#SVGID_24_);fill:url(#SVGID_26_);" width="27" height="28.162"/>
				</g>
			</g>
		</g>
	</g>
	<g style="clip-path:url(#SVGID_2_);">
		<defs>
			<path id="SVGID_27_" d="M17.88,20.905h1.772c0.825,0,1.366,0.598,1.366,1.443c0,0.844-0.541,1.444-1.366,1.444H17.88V20.905z
				 M16,19v10.934h1.88v-4.36h1.352l1.88,4.36h2.178l-2.151-4.714c0.933-0.384,1.759-1.336,1.759-2.872
				c0-1.828-1.164-3.348-3.125-3.348H16z M26.964,25.342h2.048c0.891,0,1.314,0.601,1.314,1.337c0,0.737-0.424,1.352-1.314,1.352
				h-2.048V25.342z M26.964,20.905h1.921c0.834,0,1.3,0.506,1.3,1.259c0,0.752-0.466,1.259-1.3,1.259h-1.921V20.905z M25,19v10.934
				h4.21c1.794,0,3.08-1.104,3.08-3.147c0-1.459-0.777-2.15-1.385-2.457c0.509-0.261,1.244-1.044,1.244-2.257
				c0-1.874-1.146-3.072-3.109-3.072H25z"/>
		</defs>
		<clipPath id="SVGID_28_">
			<use xlink:href="#SVGID_27_"  style="overflow:visible;"/>
		</clipPath>
		
			<linearGradient id="SVGID_29_" gradientUnits="userSpaceOnUse" x1="0" y1="48" x2="1" y2="48" gradientTransform="matrix(0 12.2693 12.2693 0 -564.7847 20.125)">
			<stop  offset="0" style="stop-color:#FFFFFF"/>
			<stop  offset="0.0049" style="stop-color:#FFFFFF"/>
			<stop  offset="1" style="stop-color:#A7DEF3"/>
		</linearGradient>
		<rect x="16" y="19" style="clip-path:url(#SVGID_28_);fill:url(#SVGID_29_);" width="16.29" height="10.934"/>
	</g>
</g>
</svg>
